<svg xmlns="http://www.w3.org/2000/svg" xmlns:xlink="http://www.w3.org/1999/xlink" width="76.209" height="122" viewBox="0 0 76.209 122">
  <defs>
    <filter id="Rectangle_2" x="3" y="0" width="73.209" height="112.21" filterUnits="userSpaceOnUse">
      <feOffset dx="3" dy="3" input="SourceAlpha"/>
      <feGaussianBlur stdDeviation="3" result="blur"/>
      <feFlood flood-opacity="0.161"/>
      <feComposite operator="in" in2="blur"/>
      <feComposite in="SourceGraphic"/>
    </filter>
  </defs>
  <g id="Group_31" data-name="Group 31" transform="translate(-923 -873)">
    <g id="Group_30" data-name="Group 30" transform="translate(6.209 -0.79)">
      <g transform="matrix(1, 0, 0, 1, 916.79, 873.79)" filter="url(#Rectangle_2)">
        <g id="Rectangle_2-2" data-name="Rectangle 2" transform="translate(9 6)" fill="none" stroke="#fff" stroke-linejoin="bevel" stroke-width="3">
          <rect width="55.209" height="94.21" rx="25" stroke="none"/>
          <rect x="1.5" y="1.5" width="52.209" height="91.21" rx="23.5" fill="none"/>
        </g>
      </g>
      <path id="Path_43" data-name="Path 43" d="M3.461,0A3.43,3.43,0,0,1,6.923,3.4v8.153a3.43,3.43,0,0,1-3.461,3.4A3.43,3.43,0,0,1,0,11.551V3.4A3.43,3.43,0,0,1,3.461,0Z" transform="translate(950.178 889.79)" fill="#fff" stroke="#fff" stroke-linecap="round" stroke-linejoin="round" stroke-width="1"/>
    </g>
    <text id="Scroll_Down" data-name="Scroll Down" transform="translate(923 992)" fill="#fff" font-size="12" font-family="Merriweather-Bold, Merriweather" font-weight="700"><tspan x="0" y="0">Scroll Down</tspan></text>
  </g>
</svg>
